<svg width="246" height="70" viewBox="0 0 246 70" fill="none" xmlns="http://www.w3.org/2000/svg">
<path fill-rule="evenodd" clip-rule="evenodd" d="M7.49238 0H18.1633C18.3392 0 18.4994 0.0658356 18.6155 0.172525L72.6412 49.6221C72.8182 49.798 72.9614 49.9875 72.9614 50.1476V66.0159C72.9614 66.176 72.8182 66.3076 72.6412 66.3076H66.7961L6.67153 11.4725H6.67266C6.40769 11.2251 6.21263 11.0015 6.21263 10.7371V1.16792C6.21263 0.52551 6.7888 0 7.49238 0Z" fill="white"/>
<path fill-rule="evenodd" clip-rule="evenodd" d="M1.27975 21.8905H11.9507C12.1266 21.8905 12.2879 21.9575 12.4029 22.063L42.8135 49.9453C42.9894 50.1212 43.1326 50.3108 43.1326 50.4708V66.3392C43.1326 66.4992 42.9872 66.6309 42.8135 66.6309H36.965L0.460029 33.363C0.195061 33.1168 0 32.892 0 32.6287V23.0584C0 22.416 0.576173 21.8905 1.27975 21.8905Z" fill="white"/>
<path fill-rule="evenodd" clip-rule="evenodd" d="M37.6404 0H48.3114C48.4884 0 48.6496 0.0658355 48.7658 0.172525L72.6412 22.0893C72.8183 22.2641 72.9615 22.4547 72.9615 22.6148V38.482C72.9615 38.642 72.8183 38.7748 72.6412 38.7748H66.7961L36.8218 11.4725C36.5557 11.2251 36.3629 11.0015 36.3629 10.7371V1.16792C36.3629 0.525509 36.9379 0 37.6404 0Z" fill="white"/>
<path fill-rule="evenodd" clip-rule="evenodd" d="M104.925 16.7198V20.9204H97.7959V41.222H93.6241V20.9204H86.4609V16.7198H104.925Z" fill="white"/>
<path fill-rule="evenodd" clip-rule="evenodd" d="M116.226 16.7198L127.214 41.222H122.624L118.868 32.8208L113.931 21.8306L108.993 32.8208H115.322L117.2 37.0214H107.116L105.238 41.222H100.647L111.636 16.7198H116.226Z" fill="white"/>
<path fill-rule="evenodd" clip-rule="evenodd" d="M144.81 34.2213C144.81 35.3767 144.636 36.3914 144.254 37.3017C143.871 38.2472 143.349 39.0167 142.689 39.6466C141.993 40.3117 141.159 40.802 140.186 41.1516C139.211 41.5023 138.133 41.6771 136.917 41.6771C135.005 41.6771 133.266 41.3616 131.77 40.7317C130.275 40.1369 129.023 39.4366 128.05 38.6319L130.935 35.7263C131.701 36.4266 132.57 36.9521 133.508 37.3369C134.1 37.582 134.621 37.7217 135.143 37.792C135.665 37.8613 136.082 37.8964 136.395 37.8964C136.986 37.8964 137.543 37.8272 138.065 37.6513C138.551 37.5117 138.968 37.3017 139.351 37.0565C140.151 36.4618 140.533 35.6911 140.533 34.7468C140.533 34.151 140.324 33.6266 139.907 33.1715C139.594 32.7867 139.176 32.5063 138.656 32.2612C138.238 32.016 137.786 31.8412 137.334 31.7016C136.882 31.5609 136.465 31.4213 136.082 31.3157C135.978 31.2805 135.874 31.2465 135.769 31.2113C135.665 31.2113 135.595 31.1761 135.525 31.1409C135.491 31.1409 135.422 31.1058 135.317 31.0706C134.83 30.931 134.135 30.6858 133.231 30.3362C132.292 29.9855 131.387 29.4963 130.483 28.9005C128.362 27.4658 127.319 25.7157 127.319 23.65C127.319 22.2857 127.563 21.0951 128.05 20.1496C128.502 19.2053 129.128 18.4347 129.892 17.8399C130.658 17.2452 131.527 16.8252 132.465 16.5801C133.405 16.3349 134.309 16.1953 135.213 16.1953C136.882 16.1953 138.273 16.4053 139.42 16.7901C140.568 17.1748 141.472 17.5948 142.133 17.9795C142.48 18.1895 142.794 18.3995 143.037 18.5754C143.279 18.7854 143.489 18.9602 143.663 19.135L140.706 22.145C140.081 21.515 139.455 21.0247 138.794 20.7103C137.821 20.2552 136.812 20.01 135.734 20.01C135.282 20.01 134.796 20.0804 134.344 20.1848C133.892 20.2904 133.474 20.4652 133.126 20.64C132.118 21.2699 131.596 22.1098 131.596 23.1256C131.596 23.7555 131.805 24.281 132.222 24.735C132.535 25.0857 132.952 25.4001 133.474 25.6805C133.927 25.9256 134.378 26.1004 134.865 26.2412C135.352 26.3808 135.804 26.5204 136.221 26.6259L136.638 26.7303C136.743 26.7655 136.986 26.8359 137.299 26.9403C137.613 27.0459 137.995 27.1855 138.447 27.3603C138.899 27.5362 139.385 27.7814 139.907 28.0254C140.429 28.2705 140.915 28.5861 141.437 28.9356C143.698 30.4406 144.81 32.1908 144.81 34.2213ZM161.188 16.7197H165.36V41.222H161.188V31.0706H151.068V41.222H146.895V16.7197H151.068V26.8711H161.188V16.7197ZM187.128 41.2923H181.218L171.967 31.9808V41.222H167.794V16.7549H171.967V26.0312L181.148 16.7901H187.059L174.924 29.006L187.128 41.2923ZM205.072 20.9203H192.866V26.8711H201.942L202.986 31.0706H192.866V37.0214H205.072V41.222H188.693V16.7197H205.072V20.9203ZM221.624 16.6845H225.796V41.1868H221.275L211.504 24.4206V41.1868H207.331V16.6845H211.853L221.624 33.4518V16.6845ZM246 16.7197V20.9203H238.871V41.222H234.699V20.9203H227.536V16.7197H246Z" fill="white"/>
<path fill-rule="evenodd" clip-rule="evenodd" d="M106.977 45.4626H111.533V69.9648H107.36V52.604L99.3271 65.0991L91.3295 52.604V69.9648H87.1565V45.4626H91.7117L99.3271 57.3641L106.977 45.4626ZM130.345 49.6984H118.14V55.6491H127.215L128.26 59.8486H118.14V65.7994H130.345V70H113.967V45.4978H130.345V49.6984ZM150.375 45.4978V49.6984H143.246V70H139.074V49.6984H131.91V45.4978H150.375Z" fill="white"/>
<path fill-rule="evenodd" clip-rule="evenodd" d="M161.678 45.4975L172.665 69.9998H168.075L164.319 61.5985L159.382 50.6084L154.444 61.5985H160.773L162.651 65.7991H152.567L150.689 69.9998H146.098L157.087 45.4975H161.678ZM178.402 65.7991H187.965V69.9998H174.229V45.5327H178.402V65.7991Z" fill="white"/>
</svg>
