<svg width="27" height="23" viewBox="0 0 27 23" fill="none" xmlns="http://www.w3.org/2000/svg">
<path d="M18.0455 22V19.6667C18.0455 18.429 17.5666 17.242 16.7141 16.3668C15.8617 15.4917 14.7055 15 13.5 15H5.54545C4.33992 15 3.18377 15.4917 2.33133 16.3668C1.47889 17.242 1 18.429 1 19.6667V22M22.5909 6.83333V13.8333M26 10.3333H19.1818M14.0682 5.66667C14.0682 8.244 12.0331 10.3333 9.52273 10.3333C7.01234 10.3333 4.97727 8.244 4.97727 5.66667C4.97727 3.08934 7.01234 1 9.52273 1C12.0331 1 14.0682 3.08934 14.0682 5.66667Z" stroke="#373435" stroke-width="2" stroke-linecap="round" stroke-linejoin="round"/>
</svg>
