<svg width="28" height="27" viewBox="0 0 28 27" fill="none" xmlns="http://www.w3.org/2000/svg">
<path d="M13.2901 23.9698H3.79479C3.05357 23.9698 2.3427 23.7082 1.81857 23.2426C1.29445 22.777 1 22.1455 1 21.4871V6.59051C1 5.93205 1.29445 5.30055 1.81857 4.83494C2.3427 4.36933 3.05357 4.10776 3.79479 4.10776H20.5635C21.3048 4.10776 22.0156 4.36933 22.5397 4.83494C23.0639 5.30055 23.3583 5.93205 23.3583 6.59051V11.556M18.4039 1.625V6.67763M8.57982 1.625V6.67763M2.01629 11.4254L23.3583 11.4254M22.088 18.6726V20.5724L23.316 21.8355M27 20.5724C27 23.3629 24.8008 25.625 22.0879 25.625C19.3751 25.625 17.1759 23.3629 17.1759 20.5724C17.1759 17.7819 19.3751 15.5197 22.0879 15.5197C24.8008 15.5197 27 17.7819 27 20.5724Z" stroke="#373435" stroke-width="2" stroke-linecap="round" stroke-linejoin="round"/>
</svg>
