<svg width="9" height="10" viewBox="0 0 9 10" fill="none" xmlns="http://www.w3.org/2000/svg">
<path d="M5.27778 4.6V7M1 2.6H1.77778H1ZM1.77778 2.6H8H1.77778ZM1.77778 2.6V8.2C1.77778 8.41216 1.85972 8.61564 2.00558 8.76568C2.15145 8.91572 2.34928 9 2.55556 9H6.44444C6.65071 9 6.84854 8.91572 6.99441 8.76568C7.14028 8.61564 7.22222 8.41216 7.22222 8.2V2.6H1.77778ZM2.94444 2.6V1.8C2.94444 1.58783 3.02639 1.38434 3.17225 1.23432C3.31811 1.08428 3.51594 1 3.72222 1H5.27778C5.48404 1 5.68187 1.08428 5.82774 1.23432C5.97362 1.38434 6.05556 1.58783 6.05556 1.8V2.6H2.94444ZM3.72222 4.6V7V4.6Z" stroke="white" stroke-linecap="round" stroke-linejoin="round"/>
</svg>
