<svg width="560" height="560" viewBox="0 0 560 560" fill="none" xmlns="http://www.w3.org/2000/svg">
<path d="M280 0C125.36 0 0 125.36 0 280C0 434.64 125.36 560 280 560C434.64 560 560 434.64 560 280C560 125.36 434.64 0 280 0ZM280 535.16C139.07 535.16 24.84 420.92 24.84 280C24.84 139.08 139.08 24.84 280 24.84C420.92 24.84 535.16 139.08 535.16 280C535.16 420.92 420.93 535.16 280 535.16Z" fill="black"/>
<path d="M300.05 256.43C269.8 245.528 257.484 237.789 257.484 226.532C257.484 216.688 264.871 206.485 287.734 206.485C313.058 206.485 329.589 214.571 338.379 218.794L348.93 179.044C336.621 173.423 320.797 168.142 297.578 167.442V136.489H263.109V169.903C225.472 176.938 203.664 201.208 203.664 232.512C203.664 266.633 229.34 284.215 266.973 296.879C293.356 305.672 304.618 314.117 304.618 327.477C304.618 341.192 290.899 349.282 270.497 349.282C247.634 349.282 226.884 341.895 212.11 333.805L201.555 374.961C214.922 382.348 237.782 389.027 261.352 390.086V423.5H296.172V387.273C336.621 380.593 358.426 353.859 358.426 322.554C358.434 290.55 341.903 271.202 300.051 256.429L300.05 256.43Z" fill="black"/>
</svg>
