<?xml version="1.0" encoding="UTF-8"?>
<svg width="700pt" height="700pt" version="1.1" viewBox="0 0 700 700" xmlns="http://www.w3.org/2000/svg">
 <g fill-rule="evenodd">
  <path d="m619.76 185.25-175-175c-8.6797-8.6797-21.262-12.16-33.18-9.2227-6.2812 1.5391-11.898 4.7773-16.344 9.2227-3.9727 3.9727-6.9648 8.8906-8.6797 14.387-7.9258 25.707-21.629 48.055-41.914 68.32-27.09 27.07-62.371 47.582-99.695 69.266-39.621 22.961-80.551 46.762-114.1 80.289-28.508 28.543-47.914 60.289-59.289 97.141-3.832 12.441-0.48828 25.898 8.6797 35.105l175 175c8.6797 8.6797 21.262 12.164 33.18 9.2227 6.2812-1.5742 11.898-4.7773 16.344-9.2227 3.9727-3.9727 6.9648-8.8906 8.6797-14.422 7.9453-25.707 21.648-48.055 41.949-68.32 27.074-27.074 62.336-47.547 99.699-69.211 39.586-22.996 80.535-46.797 114.07-80.324 28.508-28.508 47.914-60.289 59.309-97.141 3.8086-12.426 0.44922-25.938-8.7031-35.09zm-339.76 339.75c-57.961-57.961-117.04-117.06-175-175 49.734-161.02 265.3-153.98 315-315 57.961 57.941 117.06 117.04 175.04 175-49.754 160.98-265.32 153.98-315.04 315z"/>
  <path d="m412.34 260.75c-5.7031-4.7773-11.445-8.0312-17.219-9.6406-5.7383-1.6094-11.48-2.2578-17.289-1.8359-5.7383 0.4375-11.621 1.75-17.5 4.0078-5.8789 2.293-11.797 4.7773-17.746 7.6641-9.3984-10.797-18.797-21.473-28.191-31.379 4.2344-3.832 8.3477-5.7734 12.301-5.9141 3.9727-0.17578 7.7891 0.24609 11.41 1.1562 3.6914 0.92578 7.0703 1.7148 10.184 2.3281 3.1484 0.61328 5.8789-0.070313 8.2773-2.082 2.5391-2.1875 3.9375-5.0234 4.1289-8.4336 0.17578-3.4492-1.1211-6.8086-4.0078-10.078-3.6914-4.2344-8.1367-6.8086-13.477-7.7539-5.2656-0.92578-10.656-0.85937-16.273 0.36719-5.5312 1.2617-10.797 3.3438-15.785 6.2812-4.9883 2.9414-8.9961 5.9492-11.969 8.8906-1.1367-1.0859-2.2734-2.1523-3.4141-3.2188-1.2617-1.1562-2.8359-1.7852-4.7266-1.75-1.9062 0-3.4844 0.82422-4.7773 2.3281-1.2617 1.4688-1.8359 3.1836-1.6094 4.9883 0.17578 1.8711 0.92578 3.3086 2.2227 4.4102 1.1367 0.96094 2.2734 1.9062 3.4141 2.9062-4.4805 5.4062-8.1719 11.375-11.078 17.676-2.9414 6.3164-4.6914 12.582-5.3359 18.656-0.68359 6.125-0.035156 11.727 1.8359 16.922 1.8711 5.2344 5.3359 9.6758 10.395 13.879 8.2422 6.8438 17.938 9.7461 29.191 9.1016 11.219-0.68359 23.309-4.0234 36.312-11.008 10.324 11.934 20.684 23.781 31.027 34.789-4.375 3.6914-8.207 5.8086-11.586 6.4922-3.3789 0.71875-6.3867 0.64844-9.1172-0.17578-2.7305-0.85938-5.2656-2.082-7.5938-3.6562-2.3281-1.6094-4.6211-2.9766-6.9141-4.0938-2.2578-1.1211-4.5859-1.75-6.9648-1.7852-2.3789-0.035156-4.918 1.1211-7.7188 3.5156-2.8711 2.5039-4.3047 5.4062-4.3047 8.6797 0 3.2539 1.5039 6.5625 4.4453 9.9062 2.9766 3.3438 6.8438 6.1602 11.516 8.3828 4.6719 2.2227 9.957 3.6211 15.766 4.0078 5.8086 0.40234 11.934-0.47266 18.391-2.8711 6.4922-2.3633 12.914-6.6328 19.25-12.984 3.0469 2.9766 6.125 5.8086 9.1875 8.5391 1.2969 1.1211 2.8711 1.6797 4.7773 1.5391 1.8359-0.070312 3.4492-0.92578 4.7266-2.4688 1.2969-1.5742 1.8359-3.3086 1.6445-5.1289-0.17578-1.8359-0.92578-3.2539-2.1875-4.2695-3.0781-2.4688-6.1602-5.0586-9.2227-7.7891 5.2344-6.4219 9.4336-13.195 12.547-19.898 3.1133-6.7383 4.9531-13.23 5.5664-19.25 0.61328-6.0547-0.10547-11.516-2.082-16.469-1.957-5.0273-5.4375-9.332-10.426-13.48zm-97.844 11.863c-4.9531 0.21094-9.2734-1.4336-13.055-5.0938-1.6094-1.5391-2.7305-3.4141-3.4141-5.6367-0.71875-2.2227-0.96094-4.6562-0.68359-7.3164 0.24609-2.625 1.0312-5.3711 2.3984-8.1367 1.2969-2.7656 3.2188-5.5312 5.6719-8.207 8.8711 8.8203 17.727 18.496 26.602 28.508-6.7227 3.6953-12.566 5.6758-17.52 5.8828zm82.547 35.035c-1.5742 2.9062-3.3789 5.4961-5.4961 7.7539-9.8164-9.9062-19.617-20.789-29.398-31.953 2.5039-1.1211 5.1289-2.293 7.9609-3.4844 2.8359-1.1914 5.6719-1.9766 8.5039-2.4688 2.9062-0.4375 5.7734-0.31641 8.6445 0.36719 2.8359 0.71875 5.5312 2.2578 8.0312 4.6914 2.4688 2.4688 4.0234 5.0234 4.6562 7.7891 0.68359 2.8008 0.71875 5.6367 0.24609 8.5391-0.50391 2.9219-1.5391 5.8281-3.1484 8.7656z"/>
  <path d="m327.55 388.15h-0.035156c-10.938 8.3984-21.613 17.254-31.5 27.176-9.5039 9.5039-18.094 19.512-25.566 29.734l-11.969 16.344 0.035157 0.035156c-2.1875 3.4141-1.8203 7.9961 1.1562 10.973 3.4141 3.4141 8.9961 3.4141 12.426 0 0.52344-0.54297 0.94531-1.1211 1.2969-1.75l11.184-15.312c6.9297-9.4688 14.945-18.797 23.816-27.648 9.8164-9.8164 18.918-17.395 29.996-25.812l-0.035157-0.035157c0.31641-0.24609 0.61328-0.4375 0.89063-0.71875 3.4297-3.4141 3.4297-8.9961 0-12.406-3.1719-3.2188-8.2461-3.3594-11.695-0.57812z"/>
  <path d="m391.61 135.01c-9.1523 9.1523-19.074 17.395-29.363 25.254-0.71875 0.40234-1.4336 0.85938-2.0469 1.5039-3.4492 3.4492-3.4492 9.0664 0 12.512 3.3438 3.3789 8.75 3.4492 12.234 0.24609l0.070312 0.035156c10.938-8.3984 21.594-17.289 31.484-27.176 9.5039-9.5039 18.078-19.477 25.566-29.699l11.969-16.414-0.035156-0.035157c2.9766-3.4844 2.8359-8.6797-0.4375-11.969-3.4492-3.4492-9.0312-3.4492-12.477 0-0.64844 0.64844-1.1211 1.3984-1.5391 2.1523l-11.621 15.926c-6.9492 9.5156-14.949 18.809-23.805 27.664z"/>
 </g>
</svg>
