<svg width="23" height="27" viewBox="0 0 23 27" fill="none" xmlns="http://www.w3.org/2000/svg">
<path d="M15.3846 1.10254V6.24154C15.3846 6.58228 15.5224 6.90906 15.7676 7.15C16.0129 7.39093 16.3455 7.52629 16.6923 7.52629H21.9231M15.3846 1.10254H6.23077C5.53713 1.10254 4.87189 1.37325 4.38141 1.85513C3.89093 2.337 3.61538 2.99057 3.61538 3.67204V7.52629M15.3846 1.10254L21.9231 7.52629M21.9231 7.52629V21.6585C21.9231 22.34 21.6475 22.9936 21.157 23.4755C20.6666 23.9573 20.0013 24.228 19.3077 24.228H12.7692M2.96154 19.089L1 25.5128L4.92308 23.5857L8.84615 25.5128L6.88462 19.089M8.84615 15.2348C8.84615 17.3634 7.08973 19.089 4.92308 19.089C2.75642 19.089 1 17.3634 1 15.2348C1 13.1061 2.75642 11.3805 4.92308 11.3805C7.08973 11.3805 8.84615 13.1061 8.84615 15.2348Z" stroke="white" stroke-width="1.6" stroke-linecap="round" stroke-linejoin="round"/>
</svg>
