<svg width="22" height="24" viewBox="0 0 22 24" fill="none" xmlns="http://www.w3.org/2000/svg">
<path d="M12.9222 21.8813C12.7269 22.2216 12.4465 22.504 12.1091 22.7003C11.7718 22.8967 11.3893 23 11 23C10.6107 23 10.2282 22.8967 9.89084 22.7003C9.55349 22.504 9.2731 22.2216 9.07776 21.8813M17.6667 7.73591C17.6667 5.94944 16.9643 4.23613 15.714 2.9729C14.4638 1.70967 12.7681 1 11 1C9.23189 1 7.5362 1.70967 6.28595 2.9729C5.03571 4.23613 4.33333 5.94944 4.33333 7.73591C4.33333 15.5945 1 17.8398 1 17.8398H21C21 17.8398 17.6667 15.5945 17.6667 7.73591Z" stroke="#373435" stroke-width="2" stroke-linecap="round" stroke-linejoin="round"/>
</svg>
