<svg width="290" height="289" viewBox="0 0 290 289" fill="none" xmlns="http://www.w3.org/2000/svg">
<path d="M145 288.58C65.484 288.58 0.800049 223.892 0.800049 144.38C0.800049 64.864 65.484 0.179993 145 0.179993C224.516 0.179993 289.2 64.868 289.2 144.38C289.2 223.896 224.516 288.58 145 288.58ZM145 11.38C71.664 11.38 12 71.044 12 144.38C12 217.72 71.664 277.38 145 277.38C218.336 277.38 278 217.716 278 144.38C278 71.044 218.336 11.38 145 11.38Z" fill="black"/>
<path d="M179.89 182.96C176.8 182.96 174.288 180.452 174.288 177.358V74.3984C174.288 71.3086 176.796 68.7968 179.89 68.7968C182.98 68.7968 185.492 71.3046 185.492 74.3984V177.358C185.488 180.448 182.98 182.96 179.89 182.96Z" fill="black"/>
<path d="M212.09 114.99C210.5 114.99 208.926 114.318 207.817 113.01L179.829 79.9895L154.477 109.064C152.445 111.399 148.91 111.638 146.574 109.606C144.246 107.575 144.004 104.036 146.031 101.704L175.668 67.7162C176.739 66.4857 178.391 65.8217 179.93 65.7943C181.567 65.806 183.106 66.5286 184.164 67.7748L216.363 105.759C218.363 108.118 218.07 111.649 215.715 113.649C214.656 114.556 213.367 114.99 212.09 114.99Z" fill="black"/>
<path d="M107.55 217.95C104.46 217.95 101.948 215.442 101.948 212.348V109.388C101.948 106.299 104.456 103.787 107.55 103.787C110.64 103.787 113.152 106.295 113.152 109.388V212.348C113.152 215.438 110.64 217.95 107.55 217.95Z" fill="black"/>
<path d="M107.55 220.95C105.933 220.95 104.39 220.251 103.327 219.028L73.6904 185.04C71.6592 182.704 71.9052 179.173 74.2333 177.138C76.5692 175.107 80.1005 175.353 82.1356 177.681L107.488 206.763L135.476 173.743C137.468 171.379 141.003 171.083 143.366 173.094C145.726 175.094 146.022 178.626 144.015 180.985L111.816 218.969C110.761 220.219 109.218 220.942 107.581 220.949L107.55 220.95Z" fill="black"/>
</svg>
